<svg xmlns="http://www.w3.org/2000/svg" width="480" height="480" style="shape-rendering:geometricPrecision;text-rendering:geometricPrecision;image-rendering:optimizeQuality;fill-rule:evenodd;clip-rule:evenodd"><path style="opacity:.989" d="M101.5 10.5c92.001-.167 184.001 0 276 .5 54.167 6.167 84.333 36.333 90.5 90.5.667 92.333.667 184.667 0 277-6.167 54.167-36.333 84.333-90.5 90.5-92 .667-184 .667-276 0-54.167-6.167-84.333-36.333-90.5-90.5-.98-95.023-.647-190.023 1-285 9.176-50.011 39.01-77.678 89.5-83Z"/><path style="opacity:1" fill="#c7b5a5" d="M144.5 195.5h-4v264a302.507 302.507 0 0 1-51-2.5c-37.521-7.843-59.688-30.676-66.5-68.5a226.487 226.487 0 0 1-2-18c-.667-89.333-.667-178.667 0-268 5.167-49.167 32.333-76.333 81.5-81.5 89-.667 178-.667 267 0 54.034 2.792 83.368 30.959 88 84.5h-313v10h314v80h-314Z"/><path style="opacity:1" fill="#635b52" d="M144.5 195.5c-.709.904-1.709 1.237-3 1 .333 87.835-.001 175.502-1 263v-264h4Z"/><path style="opacity:1" fill="#9d8b79" d="M150.5 205.5h308v77h-208v10h208v84h-208v10h206c-8.462 45.929-36.128 70.096-83 72.5-74.333.5-148.666.667-223 .5v-254Z"/></svg>